<?xml version="1.0" encoding="UTF-8"?>
<svg version="1.1" xmlns="http://www.w3.org/2000/svg" width="618" height="839">
<path d="M0 0 C0.87269531 0.34160156 1.74539063 0.68320313 2.64453125 1.03515625 C8.06812357 3.29254333 13.05151879 6.27874413 18.09375 9.27734375 C20.54231346 10.72870999 23.00517566 12.13055838 25.5 13.5 C30.13084224 16.04358306 34.66605748 18.74258191 39.203125 21.44921875 C41.94001535 23.05005354 41.94001535 23.05005354 44.796875 24.08203125 C47 25 47 25 48 27 C49.91095887 27.97224223 51.8252097 28.93871284 53.7578125 29.8671875 C56.60795955 31.30715726 59.2486726 32.99756531 61.9375 34.71484375 C66.17411443 37.35470388 70.59010757 39.68768234 74.97265625 42.07421875 C85.7917676 48.01534926 96.36821373 54.40421973 106.94140625 60.76953125 C110.62319524 62.97022107 114.34119901 65.10161055 118.11328125 67.14453125 C122.05996515 69.29169088 125.85131299 71.52662867 129.5625 74.0625 C132.92865859 76.34938764 136.30685396 78.25113101 139.97265625 80.0078125 C143.7328328 81.84805304 147.35107014 83.95060104 151 86 C151.7321875 86.4021875 152.464375 86.804375 153.21875 87.21875 C157.24788269 89.43193556 161.20496608 91.72316378 165.125 94.125 C168.98818586 96.46705643 172.79605233 98.354977 177 100 C177 100.66 177 101.32 177 102 C178.6396875 102.4021875 178.6396875 102.4021875 180.3125 102.8125 C183.94255409 103.98150047 184.54304999 104.46777186 187 107 C188.74511408 108.03454794 188.74511408 108.03454794 190.65625 108.890625 C195.04466457 111.0004397 199.26821072 113.34414943 203.5 115.75 C204.59054687 116.36681641 204.59054687 116.36681641 205.703125 116.99609375 C207.46974952 117.9956313 209.23502065 118.99756027 211 120 C211 120.66 211 121.32 211 122 C211.88945313 122.24363281 212.77890625 122.48726562 213.6953125 122.73828125 C217.24983779 124.09538724 219.13682157 125.57949726 221.875 128.1875 C222.73222656 128.991875 223.58945312 129.79625 224.47265625 130.625 C225.30667969 131.40875 226.14070312 132.1925 227 133 C228.43215543 134.23538973 229.86917642 135.46517681 231.3125 136.6875 C234.61344511 139.5633737 237.30225767 142.5528848 240 146 C240.61875 146.75925781 241.2375 147.51851562 241.875 148.30078125 C248.35311561 156.52941707 253.35798311 165.07238692 257.3125 174.75 C257.62541992 175.49773682 257.93833984 176.24547363 258.26074219 177.01586914 C263.95217399 191.59219087 265.59807192 206.19022423 265.56176758 221.68359375 C265.57217365 223.47296675 265.5842908 225.26233048 265.59796143 227.05168152 C265.62974575 231.85077108 265.63759139 236.64961656 265.64043641 241.44879913 C265.64735479 246.49831735 265.67594983 251.54771783 265.701828 256.59716797 C265.74218976 265.06298167 265.76813834 273.52873526 265.78393555 281.99462891 C265.80422928 292.84005886 265.84745571 303.68526861 265.89822865 314.53059387 C265.9419989 323.89453258 265.9765057 333.25850193 266.00889373 342.62248611 C266.01949819 345.61566718 266.03112498 348.60884318 266.04279518 351.60202026 C266.06045451 356.3102569 266.0723518 361.01847649 266.07987976 365.72673988 C266.08337189 367.44799555 266.08857317 369.16924878 266.09566307 370.89049339 C266.12911624 379.32080308 266.06375936 387.61986394 265 396 C258.25 395.125 258.25 395.125 256 394 C256 393.34 256 392.68 256 392 C255.236875 391.79375 254.47375 391.5875 253.6875 391.375 C245.44462538 388.30138573 238.10256535 383.47697844 230.74609375 378.71875 C227.18867033 376.49219764 223.52346711 374.51406942 219.82421875 372.53515625 C215.76678666 370.32966412 211.7978642 367.97966799 207.81640625 365.640625 C205.49726698 364.28967008 203.16668594 362.97572506 200.8125 361.6875 C196.50846606 359.31873312 192.2887358 356.81624625 188.0625 354.3125 C179.13921501 349.03053304 170.08637415 343.99484895 161 339 C161 338.34 161 337.68 161 337 C159.9275 336.731875 158.855 336.46375 157.75 336.1875 C154.2630418 335.08329657 152.7985375 334.1531281 150 332 C148.41112037 331.09753825 146.80514541 330.22482293 145.1875 329.375 C140.53838228 326.8797459 136.009242 324.23591892 131.5 321.5 C126.29624877 318.34716203 121.04311158 315.34376879 115.68359375 312.4609375 C109.04052269 308.84447669 102.50020885 305.07595862 96.25 300.8125 C92.94909514 298.56835964 89.62338168 296.71543736 86.02734375 294.9921875 C83.0493118 293.53473063 80.17410085 291.90659105 77.28515625 290.28125 C75.77848791 289.43648553 74.26552002 288.60284618 72.74609375 287.78125 C68.84337715 285.66360203 65.10597049 283.44187608 61.4375 280.9375 C58.05301813 278.63417206 54.65192669 276.75405501 50.9609375 274.99609375 C48.8990018 273.94869614 47.00085418 272.76031329 45.0625 271.5 C41.4617194 269.17806807 37.7539268 267.49429296 33.78515625 265.89453125 C32 265 32 265 31 263 C29.14759836 262.16952992 29.14759836 262.16952992 27 261.5 C24.8125 260.78125 24.8125 260.78125 23 260 C22.67 259.34 22.34 258.68 22 258 C20.09059721 257.02854946 18.17782064 256.06298351 16.24609375 255.13671875 C14.0690761 254.03495851 12.05070983 252.81976375 10 251.5 C7.39226816 249.82942179 4.78709491 248.3499991 2 247 C-1.4438696 245.32496615 -4.64445823 243.4100423 -7.87109375 241.3515625 C-15.4621549 236.53228331 -23.26744728 232.09784267 -31.17578125 227.82421875 C-35.34857111 225.54882535 -39.38247811 223.14289412 -43.375 220.5625 C-47.83820446 217.69020199 -52.36999111 215.08052874 -57.0703125 212.6171875 C-60 211 -60 211 -63.2421875 208.8828125 C-73.59975826 202.17823444 -83.09638675 200.70045247 -95.375 202.625 C-101.0891517 204.04628646 -107.44441256 206.44441256 -111.66015625 210.66015625 C-112.10230469 211.10230469 -112.54445312 211.54445312 -113 212 C-113.66 212 -114.32 212 -115 212 C-115.27199219 212.57492188 -115.54398438 213.14984375 -115.82421875 213.7421875 C-117.00715392 216.01373742 -118.34566373 218.02730803 -119.8125 220.125 C-129.56237953 234.72615453 -133.37572454 250.54207994 -135.69042969 267.71508789 C-135.92696392 269.46092692 -136.19804612 271.202119 -136.48443604 272.94047546 C-137.20595855 278.01759608 -137.36460802 283.11754565 -137.55859375 288.23730469 C-137.60084579 289.33235699 -137.64309784 290.42740929 -137.68663025 291.55564499 C-138.08754722 302.90526899 -138.11545901 314.24735313 -138.07516479 325.60276031 C-138.06212023 329.31108671 -138.05581803 333.01937641 -138.05102539 336.72772217 C-138.0397586 344.5684984 -138.02044745 352.40924307 -138 360.25 C-137.97622515 369.41677167 -137.95602772 378.58353131 -137.94406128 387.75032806 C-137.93759745 391.39813027 -137.92510531 395.04587971 -137.91235352 398.69366455 C-137.90872328 400.91719518 -137.90537126 403.14072628 -137.90234375 405.36425781 C-137.89717743 406.3729895 -137.89201111 407.38172119 -137.88668823 408.42102051 C-137.88661774 409.35097839 -137.88654724 410.28093628 -137.88647461 411.23907471 C-137.884254 412.04267048 -137.88203339 412.84626625 -137.87974548 413.67421341 C-138.01004474 416.19427056 -138.44952011 418.5402949 -139 421 C-143.48993701 421.79234183 -145.8783599 421.66104846 -149.86328125 419.3125 C-151.47452009 418.15674212 -153.08504538 416.99980899 -154.68115234 415.82324219 C-158.75105266 412.83231741 -162.88296319 410.23709452 -167.3125 407.8125 C-174.27431463 403.98401943 -181.14640451 400.01913657 -188 396 C-194.82259039 392.00403283 -201.65540429 388.03572669 -208.5625 384.1875 C-213.492298 381.43969249 -218.36043188 378.61199435 -223.1875 375.6875 C-229.07683192 372.12226556 -235.02113503 368.66293311 -241 365.25 C-241.87664307 364.74911865 -242.75328613 364.2482373 -243.65649414 363.73217773 C-248.44634154 361.00270241 -253.25002888 358.30037272 -258.0703125 355.625 C-267.8073126 350.20783206 -277.22667078 344.8963771 -286 338 C-287.51787109 336.89205078 -287.51787109 336.89205078 -289.06640625 335.76171875 C-294.28796792 331.94965839 -299.15498343 328.1369613 -303.59765625 323.43359375 C-305.08579572 321.83754267 -305.08579572 321.83754267 -307.4375 320.1875 C-307.953125 319.795625 -308.46875 319.40375 -309 319 C-309 318.34 -309 317.68 -309 317 C-309.99 316.67 -310.98 316.34 -312 316 C-318.31360249 309.25054724 -323.67862901 301.54049591 -329 294 C-329.52335937 293.28585937 -330.04671875 292.57171875 -330.5859375 291.8359375 C-348.83190703 266.0598853 -355.05154113 231.69501657 -351.3125 200.75 C-347.45452451 178.46822318 -337.72505893 160.20166283 -323.25 143 C-322.76917969 142.41605469 -322.28835938 141.83210937 -321.79296875 141.23046875 C-320.57415715 139.7807959 -319.29197692 138.38486415 -318 137 C-317.34 137 -316.68 137 -316 137 C-315.67 136.01 -315.34 135.02 -315 134 C-304.99082937 124.68591066 -291.50611863 115.0013597 -278 112 C-278 111.34 -278 110.68 -278 110 C-275.48046875 108.30859375 -275.48046875 108.30859375 -272.1875 106.4375 C-271.10855469 105.81746094 -270.02960938 105.19742188 -268.91796875 104.55859375 C-266 103 -266 103 -263 102 C-263 101.34 -263 100.68 -263 100 C-262.46890625 99.74605469 -261.9378125 99.49210937 -261.390625 99.23046875 C-257.6341911 97.40023544 -254.33343247 95.52881084 -251 93 C-250.29230469 92.72285156 -249.58460938 92.44570312 -248.85546875 92.16015625 C-245.26217032 90.70022515 -241.91038158 88.90275541 -238.5 87.0625 C-237.84902344 86.71509766 -237.19804687 86.36769531 -236.52734375 86.00976562 C-232.95872476 84.09568817 -229.46414193 82.09911227 -226 80 C-220.33333333 77 -220.33333333 77 -218 77 C-217.67 76.01 -217.34 75.02 -217 74 C-215.04072167 72.92239692 -213.02813371 71.94163351 -211 71 C-209.55620907 70.21986532 -208.11909526 69.42729507 -206.6875 68.625 C-205.54087891 67.98304687 -205.54087891 67.98304687 -204.37109375 67.328125 C-203.58863281 66.88984375 -202.80617187 66.4515625 -202 66 C-200.41681008 65.12474053 -198.83348007 64.24973442 -197.25 63.375 C-191.24074164 60.10552638 -191.24074164 60.10552638 -185.75 56.0625 C-182.73402225 53.80051669 -179.7891981 52.52733607 -176.3359375 51.0703125 C-173.32262504 49.68963087 -170.62421694 47.96624789 -167.8515625 46.16015625 C-166 45 -166 45 -162.6875 43.375 C-160.02562874 42.20909928 -160.02562874 42.20909928 -158.5625 40.4375 C-156.10384804 38.1755402 -153.18359206 37.78088107 -150 37 C-150 36.34 -150 35.68 -150 35 C-147.03 34.01 -144.06 33.02 -141 32 C-141 31.34 -141 30.68 -141 30 C-139.2984375 29.2265625 -139.2984375 29.2265625 -137.5625 28.4375 C-134.14857867 26.75168752 -131.32688198 24.77559672 -128.375 22.375 C-125.00284415 19.63767141 -122.19661689 18.22827811 -118 17 C-117.01 15.515 -117.01 15.515 -116 14 C-114.33927151 13.31867549 -112.672233 12.65257873 -111 12 C-110.54882812 11.50886719 -110.09765625 11.01773437 -109.6328125 10.51171875 C-107.58436944 8.61519371 -106.03421909 8.32528765 -103.3125 7.8125 C-102.50425781 7.65394531 -101.69601563 7.49539063 -100.86328125 7.33203125 C-100.24839844 7.22246094 -99.63351563 7.11289063 -99 7 C-99 6.34 -99 5.68 -99 5 C-98.35933594 4.74605469 -97.71867188 4.49210938 -97.05859375 4.23046875 C-93.13337576 2.66857128 -89.23073757 1.10343408 -85.375 -0.625 C-82.76031425 -1.69024234 -80.46975697 -2.42459337 -77.75 -3.0625 C-73.95305304 -3.78838835 -73.95305304 -3.78838835 -71 -6 C-68.9855957 -6.41064453 -68.9855957 -6.41064453 -66.67578125 -6.6328125 C-65.82016602 -6.71692383 -64.96455078 -6.80103516 -64.08300781 -6.88769531 C-63.16874023 -6.96600586 -62.25447266 -7.04431641 -61.3125 -7.125 C-59.89662598 -7.2502002 -59.89662598 -7.2502002 -58.45214844 -7.37792969 C-37.73009665 -9.09600166 -19.30327448 -7.80980312 0 0 Z " fill="#00A9E2" transform="translate(352,8)"/>
<path d="M0 0 C2.37974015 1.26314141 4.75878256 2.52756815 7.13745117 3.79272461 C8.1376894 4.32338657 8.1376894 4.32338657 9.15813446 4.86476898 C14.9624577 7.95407908 20.65171449 11.2176033 26.3125 14.5625 C28.38245473 15.77795325 30.45278091 16.99277408 32.5234375 18.20703125 C33.58143555 18.82787598 34.63943359 19.4487207 35.72949219 20.08837891 C41.28383729 23.33490937 46.86129069 26.54121824 52.4375 29.75 C59.54196131 33.84008488 66.63430869 37.94711552 73.6875 42.125 C80.0981081 45.91945074 86.57042835 49.59688403 93.0625 53.25 C144.34154078 82.11994971 144.34154078 82.11994971 163.45141602 98.67675781 C165.05553215 100.04745141 166.68814221 101.37865146 168.32421875 102.7109375 C170.89299556 104.90846044 171.62241166 106.06114488 173 109 C173.72574219 109.71542969 174.45148437 110.43085937 175.19921875 111.16796875 C199.59359906 135.83453182 212.45125791 171.68965567 212.30053711 205.97094727 C211.99622612 221.15511041 208.76556565 234.98540874 203 249 C202.57074219 250.04542969 202.14148438 251.09085938 201.69921875 252.16796875 C194.97038428 266.87612906 183.3977906 280.71998146 171 291 C170.21367188 291.66257812 169.42734375 292.32515625 168.6171875 293.0078125 C161.35903887 298.99180337 153.83384103 303.65774988 145.375 307.75 C139.84996411 310.45986513 134.73383451 313.6035489 129.55395508 316.90527344 C123.10638391 320.9907734 116.50057131 324.76833136 109.86083984 328.53100586 C104.27183916 331.69905624 98.71459624 334.91270671 93.1875 338.1875 C87.74846865 341.40859321 82.27225541 344.5488443 76.75 347.625 C70.72783169 350.9797884 64.86172964 354.51980698 59.01171875 358.16796875 C55.35167532 360.39437649 51.60160976 362.41140267 47.82421875 364.4296875 C43.52952384 366.81760915 39.38932947 369.44360092 35.23828125 372.0703125 C32.23833728 373.85797513 29.21255468 375.40582085 26.08178711 376.94189453 C22.50361909 378.76056231 19.07174475 380.82098289 15.625 382.875 C14.88040527 383.31553711 14.13581055 383.75607422 13.36865234 384.20996094 C9.44162456 386.53626553 5.52893049 388.88511903 1.625 391.25 C-3.49279587 394.33457985 -8.74173295 397.16381733 -14 400 C-18.30968959 402.33541838 -22.57175614 404.73550994 -26.77734375 407.25390625 C-49.17000965 420.65407765 -69.54185785 430.1739648 -96.125 430.1875 C-97.36765625 430.19974609 -98.6103125 430.21199219 -99.890625 430.22460938 C-110.70889948 430.24154822 -121.27780537 429.61645245 -131.3125 425.3125 C-131.92367676 425.05412354 -132.53485352 424.79574707 -133.16455078 424.52954102 C-134.4523362 423.98199543 -135.73718395 423.42749064 -137.01904297 422.86621094 C-139.06967718 421.96953233 -141.12939723 421.09673316 -143.19140625 420.2265625 C-154.18561506 415.55181929 -164.18184863 409.9784125 -174.2421875 403.56518555 C-178.07360162 401.13620825 -181.92937799 399.01336695 -186 397 C-189.125187 395.11846893 -192.20687118 393.1752925 -195.29296875 391.23046875 C-198.22417696 389.42587997 -201.22222042 387.77373377 -204.25 386.13671875 C-209.8561357 383.10370335 -215.33951787 379.89072502 -220.8125 376.625 C-227.89455371 372.4194024 -234.99568153 368.26277932 -242.16015625 364.19921875 C-246.21191797 361.89038748 -250.23098192 359.52632406 -254.25390625 357.16772461 C-264.91774448 350.91736029 -275.64068047 344.78927175 -286.45043945 338.79443359 C-292.70989769 335.31609283 -298.8843265 331.72523238 -305 328 C-310.75610848 324.49750846 -316.55864509 321.10391168 -322.4375 317.8125 C-324.54292208 316.63034076 -326.64787018 315.44734523 -328.75244141 314.26367188 C-330.28531383 313.40182659 -331.8188722 312.54120047 -333.35302734 311.68164062 C-349.44059428 302.64155639 -363.27166883 293.41122226 -376 280 C-376.85722656 279.15824219 -377.71445312 278.31648438 -378.59765625 277.44921875 C-386.70218746 269.18655035 -391.55095602 259.51385329 -396 249 C-396.39058594 248.09765625 -396.78117187 247.1953125 -397.18359375 246.265625 C-403.24998278 231.06424547 -404.5915711 215.31387072 -404.45410156 199.1262207 C-404.45296958 197.22196476 -404.45361375 195.31770709 -404.45587158 193.41345215 C-404.457006 188.30920994 -404.43370591 183.20535384 -404.40557575 178.10120034 C-404.3803469 172.74279574 -404.37820334 167.38437952 -404.37347412 162.02592468 C-404.36110686 151.90813143 -404.32837097 141.79051377 -404.28807616 131.67279738 C-404.24316245 120.1417667 -404.22132241 108.61072706 -404.20129442 97.07963049 C-404.15963192 73.38632348 -404.0894031 49.69317164 -404 26 C-401.48396511 27.24011748 -398.97000403 28.4841729 -396.45703125 29.73046875 C-395.755177 30.07589722 -395.05332275 30.42132568 -394.3302002 30.77722168 C-388.35001641 33.74920226 -382.64729908 37.08229004 -376.96484375 40.58984375 C-372.60220441 43.25853224 -368.17996721 45.82008201 -363.75 48.375 C-362.95319824 48.83479248 -362.15639648 49.29458496 -361.33544922 49.76831055 C-359.70799391 50.70712658 -358.08038872 51.64568284 -356.45263672 52.58398438 C-354.00908417 53.99475531 -351.56850972 55.41053745 -349.12890625 56.828125 C-341.0905867 61.49723986 -333.03176396 66.12134573 -324.91723633 70.65673828 C-319.35085245 73.77858143 -313.85459339 77.01293056 -308.36376953 80.26538086 C-302.87176359 83.51008467 -297.32088585 86.63803097 -291.74707031 89.73950195 C-287.50567577 92.11356618 -283.36749743 94.60426054 -279.25 97.1875 C-274.16234306 100.36649558 -268.96351204 103.08397326 -263.5703125 105.703125 C-260.53258756 107.23583728 -257.8109258 109.08617818 -255 111 C-253.31968608 111.9297737 -251.63116109 112.84476735 -249.9375 113.75 C-244.6960032 116.57180178 -239.65086534 119.64511119 -234.59765625 122.7890625 C-229.81426039 125.74861228 -224.95456223 128.57825628 -220.10058594 131.41992188 C-216.25842814 133.66975554 -212.43069819 135.93874927 -208.625 138.25 C-205.39866077 140.19664838 -202.1317272 142.0289621 -198.8125 143.8125 C-194.29227315 146.24843554 -189.88992192 148.83975923 -185.5 151.5 C-179.42397803 155.17958565 -173.26352307 158.64769188 -167 162 C-158.9250457 166.37659963 -158.9250457 166.37659963 -155.125 168.9375 C-152.47665716 170.68540627 -149.85451844 172.19074785 -147.0625 173.6875 C-142.45631959 176.16293029 -137.96942265 178.78922376 -133.5 181.5 C-129.21360962 184.0977961 -124.91964123 186.63233505 -120.5 189 C-115.409266 191.72717893 -110.48417931 194.69158734 -105.546875 197.68359375 C-101.90852888 199.87991244 -98.24736178 201.99248476 -94.5 204 C-89.3606477 206.75432354 -84.37286946 209.73096165 -79.38867188 212.75390625 C-78.18971759 213.48078037 -76.98921229 214.20510279 -75.78710938 214.92675781 C-74.57615652 215.65399125 -73.36921682 216.38794173 -72.16601562 217.12792969 C-62.99385052 222.62627082 -50.1910406 222.47919794 -39.84765625 220.3515625 C-26.20728653 215.30915095 -18.43382172 204.01587543 -12.40625 191.3515625 C-7.93216788 180.68833345 -5.6067635 169.75430774 -3.75 158.375 C-3.58677246 157.37509033 -3.42354492 156.37518066 -3.25537109 155.3449707 C-1.33108622 142.71621082 -0.85738578 130.0304299 -0.79467773 117.27172852 C-0.78477814 115.99182037 -0.77487854 114.71191223 -0.76467896 113.39321899 C-0.73804993 109.93762466 -0.71681785 106.48201724 -0.69667697 103.02637982 C-0.67455274 99.39491836 -0.64729556 95.76349519 -0.62062073 92.13206482 C-0.57104618 85.27959581 -0.52597926 78.42710515 -0.48259836 71.57459444 C-0.4329214 63.7630035 -0.37811795 55.95145103 -0.32291877 48.13989747 C-0.20964092 32.09330059 -0.10268757 16.04666822 0 0 Z " fill="#E24589" transform="translate(405,409)"/>
<path d="M0 0 C0 0.66 0 1.32 0 2 C0.98355469 1.81953125 1.96710938 1.6390625 2.98046875 1.453125 C7.2013113 0.85484523 11.10315671 1.2053398 15.3125 1.75 C16.06088135 1.84289307 16.8092627 1.93578613 17.58032227 2.03149414 C23.28021427 2.79094506 28.56863125 4.1079634 34 6 C35.66440646 6.50747306 37.33114873 7.00734066 39 7.5 C40.66666667 8 42.33333333 8.5 44 9 C44.94101563 9.28230469 45.88203125 9.56460938 46.8515625 9.85546875 C48.62239583 10.38671875 50.39322917 10.91796875 52.1640625 11.44921875 C52.76992187 11.63097656 53.37578125 11.81273437 54 12 C54 12.66 54 13.32 54 14 C54.86238281 14.19335938 54.86238281 14.19335938 55.7421875 14.390625 C63.18025602 16.39813138 70.16863866 20.52014161 77 24 C77 24.66 77 25.32 77 26 C78.0725 26.0825 79.145 26.165 80.25 26.25 C84.50506465 27.10101293 85.12859611 27.95457164 88 31 C89.18706064 31.64496035 90.39910239 32.24481887 91.625 32.8125 C94.95325064 34.38126878 97.83120443 36.21841895 100.8125 38.375 C109.5899815 44.65994477 119.3371951 49.24448345 129 54 C129 54.66 129 55.32 129 56 C129.69996094 56.26425781 130.39992187 56.52851563 131.12109375 56.80078125 C143.62879191 62.01090789 155.38506825 69.68958447 166.90234375 76.7890625 C167.90394531 77.39492187 168.90554687 78.00078125 169.9375 78.625 C170.93652344 79.23601562 171.93554688 79.84703125 172.96484375 80.4765625 C176.05435921 82.02728455 178.58271763 82.6231313 182 83 C182 83.99 182 84.98 182 86 C185.3 86.66 188.6 87.32 192 88 C192 88.99 192 89.98 192 91 C191.39414062 90.97679687 190.78828125 90.95359375 190.1640625 90.9296875 C179.73625007 90.70508846 170.96701872 92.45525631 162 98 C161.45214844 98.54785156 160.90429688 99.09570312 160.33984375 99.66015625 C159.89769531 100.10230469 159.45554688 100.54445313 159 101 C158.34 101 157.68 101 157 101 C156.72800781 101.57492188 156.45601562 102.14984375 156.17578125 102.7421875 C154.99284608 105.01373742 153.65433627 107.02730803 152.1875 109.125 C142.43762047 123.72615453 138.62427546 139.54207994 136.30957031 156.71508789 C136.07303608 158.46092692 135.80195388 160.202119 135.51556396 161.94047546 C134.79404145 167.01759608 134.63539198 172.11754565 134.44140625 177.23730469 C134.39915421 178.33235699 134.35690216 179.42740929 134.31336975 180.55564499 C133.91245278 191.90526899 133.88454099 203.24735313 133.92483521 214.60276031 C133.93787977 218.31108671 133.94418197 222.01937641 133.94897461 225.72772217 C133.9602414 233.5684984 133.97955255 241.40924307 134 249.25 C134.02377485 258.41677167 134.04397228 267.58353131 134.05593872 276.75032806 C134.06240255 280.39813027 134.07489469 284.04587971 134.08764648 287.69366455 C134.09127672 289.91719518 134.09462874 292.14072628 134.09765625 294.36425781 C134.10282257 295.3729895 134.10798889 296.38172119 134.11331177 297.42102051 C134.11338226 298.35097839 134.11345276 299.28093628 134.11352539 300.23907471 C134.115746 301.04267048 134.11796661 301.84626625 134.12025452 302.67421341 C133.98995526 305.19427056 133.55047989 307.5402949 133 310 C128.51006299 310.79234183 126.1216401 310.66104846 122.13671875 308.3125 C120.52547991 307.15674212 118.91495462 305.99980899 117.31884766 304.82324219 C113.24894734 301.83231741 109.11703681 299.23709452 104.6875 296.8125 C97.72568537 292.98401943 90.85359549 289.01913657 84 285 C77.17740961 281.00403283 70.34459571 277.03572669 63.4375 273.1875 C58.507702 270.43969249 53.63956812 267.61199435 48.8125 264.6875 C42.92316808 261.12226556 36.97886497 257.66293311 31 254.25 C29.6850354 253.49867798 29.6850354 253.49867798 28.34350586 252.73217773 C23.55365846 250.00270241 18.74997112 247.30037272 13.9296875 244.625 C4.1926874 239.20783206 -5.22667078 233.8963771 -14 227 C-15.01191406 226.26136719 -16.02382813 225.52273438 -17.06640625 224.76171875 C-22.28796792 220.94965839 -27.15498343 217.1369613 -31.59765625 212.43359375 C-33.08579572 210.83754267 -33.08579572 210.83754267 -35.4375 209.1875 C-35.953125 208.795625 -36.46875 208.40375 -37 208 C-37 207.34 -37 206.68 -37 206 C-37.99 205.67 -38.98 205.34 -40 205 C-46.31360249 198.25054724 -51.67862901 190.54049591 -57 183 C-57.52335937 182.28585937 -58.04671875 181.57171875 -58.5859375 180.8359375 C-76.83190703 155.0598853 -83.05154113 120.69501657 -79.3125 89.75 C-75.45452451 67.46822318 -65.72505893 49.20166283 -51.25 32 C-50.52876953 31.12408203 -50.52876953 31.12408203 -49.79296875 30.23046875 C-48.57415715 28.7807959 -47.29197692 27.38486415 -46 26 C-45.34 26 -44.68 26 -44 26 C-43.505 24.515 -43.505 24.515 -43 23 C-33.0554868 13.74607799 -14.41779537 -1.35166832 0 0 Z " fill="#0069A5" transform="translate(80,119)"/>
<path d="M0 0 C2.37974015 1.26314141 4.75878256 2.52756815 7.13745117 3.79272461 C7.80427666 4.14649925 8.47110214 4.5002739 9.15813446 4.86476898 C14.9624577 7.95407908 20.65171449 11.2176033 26.3125 14.5625 C28.38245473 15.77795325 30.45278091 16.99277408 32.5234375 18.20703125 C33.58143555 18.82787598 34.63943359 19.4487207 35.72949219 20.08837891 C41.28383729 23.33490937 46.86129069 26.54121824 52.4375 29.75 C59.54196131 33.84008488 66.63430869 37.94711552 73.6875 42.125 C80.0981081 45.91945074 86.57042835 49.59688403 93.0625 53.25 C144.34154078 82.11994971 144.34154078 82.11994971 163.45141602 98.67675781 C165.05553215 100.04745141 166.68814221 101.37865146 168.32421875 102.7109375 C170.89299556 104.90846044 171.62241166 106.06114488 173 109 C173.72574219 109.71542969 174.45148438 110.43085937 175.19921875 111.16796875 C199.59359906 135.83453182 212.45125791 171.68965567 212.30053711 205.97094727 C211.99622612 221.15511041 208.76556565 234.98540874 203 249 C202.57074219 250.04542969 202.14148438 251.09085938 201.69921875 252.16796875 C194.97038428 266.87612906 183.3977906 280.71998146 171 291 C170.21367188 291.66257812 169.42734375 292.32515625 168.6171875 293.0078125 C163.03505619 297.61000853 157.3095143 301.4713067 151 305 C150.40316406 305.38027344 149.80632812 305.76054688 149.19140625 306.15234375 C136.09428102 313.8822729 116.44605097 313.61634967 102.08203125 310.33300781 C75.86206925 303.29310388 75.86206925 303.29310388 71 296 C68.6723195 294.90462094 66.38825726 293.93600386 64 293 C62.80375 292.46375 61.6075 291.9275 60.375 291.375 C57.17521403 289.93919912 57.17521403 289.93919912 54.3125 289.5 C51.5124385 288.8945813 50.29307882 287.72571911 48 286 C45.7823034 284.67987675 43.5611852 283.38954476 41.3125 282.125 C40.69616699 281.77566406 40.07983398 281.42632813 39.44482422 281.06640625 C34.6451856 278.35024428 29.8317083 275.65871779 25 273 C25 272.34 25 271.68 25 271 C23.99259766 270.88591797 23.99259766 270.88591797 22.96484375 270.76953125 C19.02512836 269.74697007 15.9961797 267.82713092 12.5625 265.6875 C11.91990234 265.29626953 11.27730469 264.90503906 10.61523438 264.50195312 C8.7334332 263.34994693 6.86552168 262.17814523 5 261 C4.40300293 260.63213379 3.80600586 260.26426758 3.19091797 259.88525391 C1.75793861 258.97802277 0.37319457 257.99540688 -1 257 C-1 256.34 -1 255.68 -1 255 C-1.928125 255.061875 -2.85625 255.12375 -3.8125 255.1875 C-7.49269297 254.97101806 -7.68272003 254.60693997 -10 252 C-11.98246398 250.96567096 -13.98413316 249.96761608 -16 249 C-18.875 247.4375 -18.875 247.4375 -21 246 C-21 245.34 -21 244.68 -21 244 C-22.32 244 -23.64 244 -25 244 C-25 243.34 -25 242.68 -25 242 C-27.97 241.01 -30.94 240.02 -34 239 C-34 238.34 -34 237.68 -34 237 C-35.2684375 236.62875 -35.2684375 236.62875 -36.5625 236.25 C-40.47412272 234.82759174 -43.53244087 233.31170609 -47 231 C-47.69921875 228.8671875 -47.69921875 228.8671875 -48 227 C-48.63808594 226.89042969 -49.27617187 226.78085937 -49.93359375 226.66796875 C-50.75988281 226.50941406 -51.58617187 226.35085938 -52.4375 226.1875 C-53.67306641 225.96126953 -53.67306641 225.96126953 -54.93359375 225.73046875 C-55.61550781 225.48941406 -56.29742187 225.24835938 -57 225 C-57.33 224.01 -57.66 223.02 -58 222 C-57.03320312 221.97421875 -56.06640625 221.9484375 -55.0703125 221.921875 C-42.62466002 221.37968816 -33.15164298 218.89553357 -24 210 C-11.50341965 195.22433021 -6.79307684 177.02471379 -3.75 158.375 C-3.58677246 157.37509033 -3.42354492 156.37518066 -3.25537109 155.3449707 C-1.33108622 142.71621082 -0.85738578 130.0304299 -0.79467773 117.27172852 C-0.78477814 115.99182037 -0.77487854 114.71191223 -0.76467896 113.39321899 C-0.73804993 109.93762466 -0.71681785 106.48201724 -0.69667697 103.02637982 C-0.67455274 99.39491836 -0.64729556 95.76349519 -0.62062073 92.13206482 C-0.57104618 85.27959581 -0.52597926 78.42710515 -0.48259836 71.57459444 C-0.4329214 63.7630035 -0.37811795 55.95145103 -0.32291877 48.13989747 C-0.20964092 32.09330059 -0.10268757 16.04666822 0 0 Z " fill="#51447C" transform="translate(405,409)"/>
<path d="M0 0 C3.96 1.98 7.92 3.96 12 6 C12 6.66 12 7.32 12 8 C9.36 7.67 6.72 7.34 4 7 C1.49868365 10.75197452 1.77481312 13.66884429 1.875 18 C1.88402344 18.72445313 1.89304688 19.44890625 1.90234375 20.1953125 C1.92733463 22.13032076 1.96310729 24.06518206 2 26 C2 28.97522321 1.99370943 31.9503683 1.98654175 34.92558289 C1.94622773 52.19114963 1.915925 69.45670486 1.89637566 86.72230816 C1.88606439 95.59117734 1.87199818 104.46001102 1.84912109 113.32885742 C1.82916285 121.07004708 1.81627828 128.81121101 1.81182301 136.55242568 C1.80922089 140.64726919 1.80312523 144.74203893 1.78853989 148.83685875 C1.77491794 152.69213487 1.77078665 156.54730715 1.77378464 160.40260506 C1.77323664 161.81346578 1.76928822 163.22433016 1.76158905 164.63516998 C1.72449921 171.78515331 1.90479652 178.14668689 4 185 C4.41576029 190.03845094 4.30855654 195.09291297 3 200 C3.66 200 4.32 200 5 200 C5 203.96 5 207.92 5 212 C4.67 212 4.34 212 4 212 C0.73561981 198.86108028 -0.56885131 186.63851441 -0.45410156 173.1262207 C-0.45296958 171.22196476 -0.45361375 169.31770709 -0.45587158 167.41345215 C-0.457006 162.30920994 -0.43370591 157.20535384 -0.40557575 152.10120034 C-0.3803469 146.74279574 -0.37820334 141.38437952 -0.37347412 136.02592468 C-0.36110686 125.90813143 -0.32837097 115.79051377 -0.28807616 105.67279738 C-0.24316245 94.1417667 -0.22132241 82.61072706 -0.20129442 71.07963049 C-0.15963192 47.38632348 -0.0894031 23.69317164 0 0 Z " fill="#C95187" transform="translate(1,435)"/>
<path d="M0 0 C5.42953731 2.13890864 10.78021107 4.39010554 16 7 C17.0725 7.45375 18.145 7.9075 19.25 8.375 C21.91835817 9.51694253 24.56550117 10.69241676 27.1875 11.9375 C27.82042969 12.23527344 28.45335937 12.53304687 29.10546875 12.83984375 C31 14 31 14 32.87890625 15.9765625 C40.15713724 22.91969998 54.44734956 25.11826335 64 28 C64 28.33 64 28.66 64 29 C62.10448978 29.05441656 60.2085208 29.09298035 58.3125 29.125 C57.25675781 29.14820313 56.20101562 29.17140625 55.11328125 29.1953125 C51.94477177 28.99653524 49.81137662 28.44874543 47 27 C46.505 26.01 46.505 26.01 46 25 C43.65092125 24.31068656 43.65092125 24.31068656 40.9375 23.875 C40.01839844 23.70742188 39.09929687 23.53984375 38.15234375 23.3671875 C37.44207031 23.24601563 36.73179687 23.12484375 36 23 C35.505 21.515 35.505 21.515 35 20 C32.95560898 19.304915 32.95560898 19.304915 30.5625 19 C28.12890625 18.625 28.12890625 18.625 26 18 C25.34 17.01 24.68 16.02 24 15 C21.91828596 14.0988739 21.91828596 14.0988739 19.5625 13.5 C16.09653067 12.54072018 14.48559268 11.54605304 12 9 C9.69011685 8.25613932 7.35684056 7.57809297 5 7 C5 6.01 5 5.02 5 4 C3.35 3.67 1.7 3.34 0 3 C0 2.01 0 1.02 0 0 Z " fill="#BB5794" transform="translate(446,691)"/>
<path d="M0 0 C1.32 0 2.64 0 4 0 C4.33 0.66 4.66 1.32 5 2 C7.2960585 2.80362048 9.61640867 3.40557569 11.96875 4.0234375 C12.97421875 4.50683594 12.97421875 4.50683594 14 5 C14.65234375 7.0390625 14.65234375 7.0390625 15 9 C17.16621868 10.1025173 17.16621868 10.1025173 20 11 C21.44598018 11.6908572 22.88322008 12.4002233 24.3125 13.125 C25.00988281 13.47820313 25.70726562 13.83140625 26.42578125 14.1953125 C27.20501953 14.59363281 27.20501953 14.59363281 28 15 C28 15.66 28 16.32 28 17 C30.97 17.99 33.94 18.98 37 20 C37 20.66 37 21.32 37 22 C38.32 22 39.64 22 41 22 C41 22.66 41 23.32 41 24 C41.639375 24.226875 42.27875 24.45375 42.9375 24.6875 C47.13320261 26.48565826 51.03900556 28.73904021 55 31 C55 31.66 55 32.32 55 33 C55.9075 32.9175 56.815 32.835 57.75 32.75 C61 33 61 33 63.25 34.875 C64.11625 35.926875 64.11625 35.926875 65 37 C65.66 37.66 66.32 38.32 67 39 C64.69 38.67 62.38 38.34 60 38 C59.67 37.01 59.34 36.02 59 35 C57.02203492 34.34081717 57.02203492 34.34081717 54.6875 34.0625 C50.47870678 33.27376552 48.94216396 32.13830822 46 29 C42.36456099 27.72234735 42.36456099 27.72234735 39 27 C39 26.01 39 25.02 39 24 C36.36 23.67 33.72 23.34 31 23 C30.67 21.68 30.34 20.36 30 19 C28.02 18.67 26.04 18.34 24 18 C23.67 16.68 23.34 15.36 23 14 C20.03 13.67 17.06 13.34 14 13 C13.67 11.68 13.34 10.36 13 9 C10.03 8.505 10.03 8.505 7 8 C7 6.68 7 5.36 7 4 C6.401875 3.896875 5.80375 3.79375 5.1875 3.6875 C2.71756736 2.91123545 1.67748765 1.92911079 0 0 Z " fill="#BD5491" transform="translate(343,631)"/>
<path d="M0 0 C-3.58484484 3.00621497 -7.25255049 5.43002885 -11.3125 7.75 C-12.38113281 8.36359375 -13.44976563 8.9771875 -14.55078125 9.609375 C-15.35902344 10.06828125 -16.16726563 10.5271875 -17 11 C-17 9.68 -17 8.36 -17 7 C-17.97582031 6.95101562 -18.95164062 6.90203125 -19.95703125 6.8515625 C-21.86548828 6.73941406 -21.86548828 6.73941406 -23.8125 6.625 C-25.07707031 6.55539062 -26.34164062 6.48578125 -27.64453125 6.4140625 C-31 6 -31 6 -34 4 C-34.33 3.34 -34.66 2.68 -35 2 C-34.44650879 2.01047363 -33.89301758 2.02094727 -33.32275391 2.03173828 C-20.03382975 2.46620033 -20.03382975 2.46620033 -6.97265625 0.4375 C-4.61105143 -0.08626186 -2.41119846 -0.06709422 0 0 Z " fill="#C35494" transform="translate(546,718)"/>
<path d="M0 0 C14.78132118 0.59453303 14.78132118 0.59453303 21 4 C21 4.66 21 5.32 21 6 C21.66386719 6.12117187 22.32773437 6.24234375 23.01171875 6.3671875 C27.53424459 7.22547708 31.79938524 8.03971311 36 10 C36 10.33 36 10.66 36 11 C29.47762799 11.48011905 24.15055152 9.74181728 18 7.6875 C17.0409375 7.37876953 16.081875 7.07003906 15.09375 6.75195312 C9.93765273 5.06984722 4.94329958 3.2313505 0 1 C0 0.67 0 0.34 0 0 Z " fill="#8D4582" transform="translate(481,709)"/>
<path d="M0 0 C1.45907003 2.71171459 2.39431865 5.17888562 3.03515625 8.1875 C3.20466797 8.96867188 3.37417969 9.74984375 3.54882812 10.5546875 C3.71833984 11.36164063 3.88785156 12.16859375 4.0625 13 C4.40718228 14.60424617 4.75222222 16.20841554 5.09765625 17.8125 C5.24726807 18.52019531 5.39687988 19.22789062 5.55102539 19.95703125 C6.72790559 25.31218812 8.04687529 30.67013959 10.125 35.75 C11 38 11 38 11 41 C10.34 41 9.68 41 9 41 C3.97361325 27.56981248 -0.25433798 14.49726493 0 0 Z " fill="#236791" transform="translate(1,237)"/>
<path d="M0 0 C4.91062142 -0.50365348 7.85350878 0.71676669 12.14453125 2.77734375 C18.22802991 5.3821797 24.66692161 7.10396181 31 9 C31 9.33 31 9.66 31 10 C29.10448978 10.05441656 27.2085208 10.09298035 25.3125 10.125 C24.25675781 10.14820313 23.20101563 10.17140625 22.11328125 10.1953125 C18.94477177 9.99653524 16.81137662 9.44874543 14 8 C13.67 7.34 13.34 6.68 13 6 C10.65092125 5.31068656 10.65092125 5.31068656 7.9375 4.875 C7.01839844 4.70742188 6.09929687 4.53984375 5.15234375 4.3671875 C4.44207031 4.24601563 3.73179687 4.12484375 3 4 C2.67 3.01 2.34 2.02 2 1 C1.34 0.67 0.68 0.34 0 0 Z " fill="#C35293" transform="translate(479,710)"/>
<path d="M0 0 C1.29744141 0.01353516 1.29744141 0.01353516 2.62109375 0.02734375 C3.26175781 0.03894531 3.90242188 0.05054688 4.5625 0.0625 C-5.03728318 6.46235545 -18.36658833 5.4243821 -29.4375 5.0625 C-29.4375 4.7325 -29.4375 4.4025 -29.4375 4.0625 C-26.75025296 3.58187876 -24.06271967 3.10296504 -21.375 2.625 C-20.62283203 2.49029297 -19.87066406 2.35558594 -19.09570312 2.21679688 C-6.13262833 -0.08400861 -6.13262833 -0.08400861 0 0 Z " fill="#C34C84" transform="translate(335.4375,833.9375)"/>
<path d="M0 0 C0.51046875 0.29132812 1.0209375 0.58265625 1.546875 0.8828125 C7.92346153 4.47812193 14.43350054 7.766749 21 11 C21 11.66 21 12.32 21 13 C22.32 13.66 23.64 14.32 25 15 C21.63295715 15.2295711 19.58629732 15.33943529 16.625 13.625 C16.08875 13.08875 15.5525 12.5525 15 12 C15 11.34 15 10.68 15 10 C14.37351562 9.89042969 13.74703125 9.78085937 13.1015625 9.66796875 C12.28429687 9.50941406 11.46703125 9.35085938 10.625 9.1875 C9.40683594 8.96126953 9.40683594 8.96126953 8.1640625 8.73046875 C6 8 6 8 4 5 C1.94074861 4.27617533 1.94074861 4.27617533 0 4 C0 2.68 0 1.36 0 0 Z " fill="#BE5493" transform="translate(411,670)"/>
<path d="M0 0 C2.64 0.33 5.28 0.66 8 1 C8 2.98 8 4.96 8 7 C0.73846154 7.61538462 0.73846154 7.61538462 -3 4.5 C-3.66 3.675 -4.32 2.85 -5 2 C-3.35 2 -1.7 2 0 2 C0 1.34 0 0.68 0 0 Z " fill="#266F9C" transform="translate(205,422)"/>
<path d="M0 0 C1.45880109 0.14107747 2.91703551 0.28802415 4.375 0.4375 C5.59316406 0.55931641 5.59316406 0.55931641 6.8359375 0.68359375 C9 1 9 1 11 2 C11 2.99 11 3.98 11 5 C12.11375 5.2475 13.2275 5.495 14.375 5.75 C18 7 18 7 19.4375 9.125 C19.623125 9.74375 19.80875 10.3625 20 11 C15.25 10.125 15.25 10.125 13 9 C13 8.34 13 7.68 13 7 C12.154375 6.7525 11.30875 6.505 10.4375 6.25 C6.61572526 4.86026373 3.48131937 3.08879162 0 1 C0 0.67 0 0.34 0 0 Z " fill="#813E7C" transform="translate(358,639)"/>
<path d="M0 0 C3.17245361 0.64743951 5.63235822 1.77067281 8.4375 3.375 C9.62472656 4.04982422 9.62472656 4.04982422 10.8359375 4.73828125 C12.42148214 5.66270529 13.99548472 6.60700288 15.5625 7.5625 C18.95032866 9.56045023 22.46788923 11.27338506 26 13 C26 13.66 26 14.32 26 15 C21.10539931 14.445717 17.65299271 12.23641121 13.5625 9.6875 C12.91990234 9.29626953 12.27730469 8.90503906 11.61523438 8.50195312 C7.68114823 6.09357349 3.77901301 3.64589319 0 1 C0 0.67 0 0.34 0 0 Z " fill="#8D4481" transform="translate(404,665)"/>
<path d="M0 0 C1.67013418 0.65793165 3.3357865 1.32723284 5 2 C6.175625 2.45375 7.35125 2.9075 8.5625 3.375 C11.86370397 4.93556915 13.63392523 6.28339564 16 9 C16.66 9.66 17.32 10.32 18 11 C18 11.66 18 12.32 18 13 C15 12 15 12 13.75 10.5625 C11.170055 8.25897767 8.30722434 7.81120597 5 7 C5 6.01 5 5.02 5 4 C3.35 3.67 1.7 3.34 0 3 C0 2.01 0 1.02 0 0 Z " fill="#C35392" transform="translate(446,691)"/>
<path d="M0 0 C-3.58484484 3.00621497 -7.25255049 5.43002885 -11.3125 7.75 C-12.38113281 8.36359375 -13.44976563 8.9771875 -14.55078125 9.609375 C-15.35902344 10.06828125 -16.16726563 10.5271875 -17 11 C-16.34 9.35 -15.68 7.7 -15 6 C-13.68 6 -12.36 6 -11 6 C-11 5.34 -11 4.68 -11 4 C-11.99 3.34 -12.98 2.68 -14 2 C-4.58997722 -0.29612756 -4.58997722 -0.29612756 0 0 Z " fill="#A45187" transform="translate(546,718)"/>
<path d="M0 0 C2.31 0 4.62 0 7 0 C7.2475 0.61875 7.495 1.2375 7.75 1.875 C9.20628639 4.35068687 10.37812506 4.95125002 13 6 C13 6.66 13 7.32 13 8 C14.134375 8.268125 15.26875 8.53625 16.4375 8.8125 C18.2009375 9.4003125 18.2009375 9.4003125 20 10 C20.33 10.99 20.66 11.98 21 13 C21.66 13.33 22.32 13.66 23 14 C22.01 14 21.02 14 20 14 C19 13 18 12 17 11 C15.01753602 9.96567096 13.01586684 8.96761608 11 8 C8.125 6.4375 8.125 6.4375 6 5 C6 4.34 6 3.68 6 3 C4.68 3 3.36 3 2 3 C2 2.34 2 1.68 2 1 C1.34 0.67 0.68 0.34 0 0 Z " fill="#86407D" transform="translate(378,650)"/>
<path d="M0 0 C0.99 0.495 0.99 0.495 2 1 C2.18451025 11.55808656 2.18451025 11.55808656 1 16 C1.66 16 2.32 16 3 16 C3 19.96 3 23.92 3 28 C2.67 28 2.34 28 2 28 C0.33042768 21.48603871 -0.26029841 15.64517871 -0.125 8.9375 C-0.11597656 8.07189453 -0.10695312 7.20628906 -0.09765625 6.31445312 C-0.07439723 4.20951221 -0.03854008 2.10471658 0 0 Z " fill="#C2457E" transform="translate(3,619)"/>
<path d="M0 0 C3.69876091 1.37287342 6.9514476 3.06355453 10.3125 5.125 C11.19550781 5.66382813 12.07851563 6.20265625 12.98828125 6.7578125 C13.65214844 7.16773438 14.31601562 7.57765625 15 8 C11.12329273 9.29223576 8.9545896 9.02273869 5 8 C2.83964473 6.15750249 1.61497918 4.39799939 0 2 C0 1.34 0 0.68 0 0 Z " fill="#C75089" transform="translate(271,591)"/>
<path d="M0 0 C14.78132118 0.59453303 14.78132118 0.59453303 21 4 C20.34 4.66 19.68 5.32 19 6 C12.28455107 5.64333731 5.99292473 3.99646237 0 1 C0 0.67 0 0.34 0 0 Z " fill="#763C7A" transform="translate(481,709)"/>
<path d="M0 0 C3.3 0.99 6.6 1.98 10 3 C10 3.99 10 4.98 10 6 C11.65 6 13.3 6 15 6 C15 7.32 15 8.64 15 10 C11.34426939 8.62992438 8.04532353 6.98982135 4.6875 5 C3.80449219 4.484375 2.92148438 3.96875 2.01171875 3.4375 C1.34785156 2.963125 0.68398437 2.48875 0 2 C0 1.34 0 0.68 0 0 Z " fill="#135F8E" transform="translate(185,414)"/>
<path d="M0 0 C1.45947705 0.06006078 2.91779272 0.1488689 4.375 0.25 C5.59316406 0.31960938 5.59316406 0.31960938 6.8359375 0.390625 C9 1 9 1 10.1015625 2.921875 C10.39804687 3.60765625 10.69453125 4.2934375 11 5 C11.99 5.66 12.98 6.32 14 7 C14 7.66 14 8.32 14 9 C9.02790438 7.23570801 4.56561939 4.6060834 0 2 C0 1.34 0 0.68 0 0 Z " fill="#7C3C7B" transform="translate(430,680)"/>
<path d="M0 0 C1.875 0.25 1.875 0.25 4 1 C4.309375 1.639375 4.61875 2.27875 4.9375 2.9375 C6.39604661 5.76879635 8.07670808 5.93050295 11 7 C12.625 8.5 12.625 8.5 14 10 C14.99 10.66 15.98 11.32 17 12 C17 12.66 17 13.32 17 14 C12.19556743 12.51142813 9.25334099 9.82136612 5.6875 6.4375 C5.13771484 5.93025391 4.58792969 5.42300781 4.02148438 4.90039062 C2.6560137 3.62651674 1.32468546 2.31623451 0 1 C0 0.67 0 0.34 0 0 Z " fill="#155B87" transform="translate(48,330)"/>
<path d="M0 0 C0.66 0 1.32 0 2 0 C0.84122802 2.8442585 -0.29275847 4.27847757 -2.5625 6.4375 C-5.21192705 9.22279511 -5.4368468 10.3395042 -6 14 C-7.5625 16.3125 -7.5625 16.3125 -9 18 C-9.99 17.67 -10.98 17.34 -12 17 C-8.48640127 10.80759373 -4.93490456 5.15921841 0 0 Z " fill="#176493" transform="translate(27,153)"/>
<path d="M0 0 C1.43836751 0.11458693 2.87570966 0.24209116 4.3125 0.375 C5.51326172 0.47941406 5.51326172 0.47941406 6.73828125 0.5859375 C9 1 9 1 12 3 C12 3.99 12 4.98 12 6 C12.99 6.33 13.98 6.66 15 7 C15 7.66 15 8.32 15 9 C11.32305352 7.62859834 8.04681411 5.96304199 4.6875 3.9375 C3.80449219 3.41027344 2.92148438 2.88304687 2.01171875 2.33984375 C1.34785156 1.89769531 0.68398437 1.45554687 0 1 C0 0.67 0 0.34 0 0 Z " fill="#C24C83" transform="translate(71,719)"/>
<path d="M0 0 C4.62 0 9.24 0 14 0 C13 2 13 2 9.75 3.1875 C6.22790825 3.95061988 4.38319499 4.0252106 1 3 C0.67 2.01 0.34 1.02 0 0 Z " fill="#C64E8B" transform="translate(511,720)"/>
<path d="M0 0 C-1.5778125 0.8971875 -1.5778125 0.8971875 -3.1875 1.8125 C-5.42691378 3.08633659 -7.62390194 4.38820565 -9.8125 5.75 C-12 7 -12 7 -14 7 C-14 6.34 -14 5.68 -14 5 C-13.34 4.67 -12.68 4.34 -12 4 C-11.67 3.01 -11.34 2.02 -11 1 C-9.2578125 0.234375 -9.2578125 0.234375 -7.125 -0.25 C-6.07699219 -0.50523437 -6.07699219 -0.50523437 -5.0078125 -0.765625 C-3 -1 -3 -1 0 0 Z " fill="#BF4C82" transform="translate(389,810)"/>
<path d="M0 0 C3.465 1.485 3.465 1.485 7 3 C7 3.66 7 4.32 7 5 C9.97 5.99 12.94 6.98 16 8 C16 8.66 16 9.32 16 10 C11.7032405 9.42657506 8.81520279 7.89841036 5.1875 5.5625 C4.21167969 4.94503906 3.23585938 4.32757813 2.23046875 3.69140625 C1.49441406 3.13324219 0.75835937 2.57507813 0 2 C0 1.34 0 0.68 0 0 Z " fill="#165F8D" transform="translate(99,364)"/>
<path d="M0 0 C1.98 0 3.96 0 6 0 C6 0.66 6 1.32 6 2 C6.5775 2.268125 7.155 2.53625 7.75 2.8125 C10.05550043 4.02929189 12.02056192 5.30333879 14 7 C14 7.66 14 8.32 14 9 C10.40241608 7.67726488 7.36262865 6.0805802 4.1875 3.9375 C3.39730469 3.41027344 2.60710937 2.88304687 1.79296875 2.33984375 C1.20128906 1.89769531 0.60960937 1.45554687 0 1 C0 0.67 0 0.34 0 0 Z " fill="#BE5087" transform="translate(210,799)"/>
<path d="M0 0 C1.48206495 0.254496 2.96068615 0.52911762 4.4375 0.8125 C5.67306641 1.03873047 5.67306641 1.03873047 6.93359375 1.26953125 C7.95646484 1.63111328 7.95646484 1.63111328 9 2 C9.33 2.99 9.66 3.98 10 5 C11.65 5.33 13.3 5.66 15 6 C15.33 6.99 15.66 7.98 16 9 C12.54385216 7.84795072 9.49480407 6.17863061 6.3125 4.4375 C5.70599609 4.10814453 5.09949219 3.77878906 4.47460938 3.43945312 C2.98190155 2.62845438 1.49079305 1.81451318 0 1 C0 0.67 0 0.34 0 0 Z " fill="#933F7D" transform="translate(444,689)"/>
<path d="M0 0 C5.99932374 1.8331267 11.44920563 4.07321751 17 7 C17 7.99 17 8.98 17 10 C14.53957386 8.76978693 12.07942528 7.53908376 9.62109375 6.3046875 C7.57117509 5.2843107 5.50690875 4.29274625 3.4375 3.3125 C1 2 1 2 0 0 Z " fill="#934683" transform="translate(460,698)"/>
<path d="M0 0 C0.33 0 0.66 0 1 0 C1.40850553 7.08076251 -0.09579269 13.19925959 -2 20 C-2.33 20 -2.66 20 -3 20 C-3.35482211 12.78528371 -2.1591338 6.87581298 0 0 Z " fill="#266C97" transform="translate(4,196)"/>
<path d="M0 0 C1.93784265 0.14120714 3.87526955 0.28812873 5.8125 0.4375 C7.43091797 0.55931641 7.43091797 0.55931641 9.08203125 0.68359375 C12 1 12 1 15 2 C15 2.66 15 3.32 15 4 C4.44191344 3.22095672 4.44191344 3.22095672 0 1 C0 0.67 0 0.34 0 0 Z " fill="#C44D84" transform="translate(276,834)"/>
<path d="M0 0 C1.32 0 2.64 0 4 0 C4.33 0.66 4.66 1.32 5 2 C7.2931383 2.84228734 9.61494957 3.46932939 11.96875 4.12109375 C12.6390625 4.41113281 13.309375 4.70117188 14 5 C14.33 5.99 14.66 6.98 15 8 C12.09500018 7.36310966 9.59921222 6.4481633 6.9375 5.125 C6.26589844 4.79757812 5.59429687 4.47015625 4.90234375 4.1328125 C2.93771271 2.96290901 1.54013857 1.67927882 0 0 Z " fill="#9C447F" transform="translate(343,631)"/>
<path d="M0 0 C5.7097955 0.41778991 8.60957142 2.57546571 13 6 C12.01 6.495 12.01 6.495 11 7 C8.3984375 5.78515625 8.3984375 5.78515625 5.375 4.0625 C4.37210938 3.49660156 3.36921875 2.93070313 2.3359375 2.34765625 C1.56507813 1.90292969 0.79421875 1.45820312 0 1 C0 0.67 0 0.34 0 0 Z " fill="#BD4A80" transform="translate(183,784)"/>
<path d="M0 0 C3.96 1.98 3.96 1.98 8 4 C8 4.33 8 4.66 8 5 C5.125 5.625 5.125 5.625 2 6 C1.34 5.34 0.68 4.68 0 4 C0 2.68 0 1.36 0 0 Z " fill="#B25182" transform="translate(1,435)"/>
<path d="M0 0 C1.875 0.5625 1.875 0.5625 4 2 C5.25 5.625 5.25 5.625 6 9 C3 8 3 8 1.3125 5.625 C0 3 0 3 0 0 Z " fill="#195B83" transform="translate(23,299)"/>
<path d="M0 0 C0.66 0.33 1.32 0.66 2 1 C0.35 4.3 -1.3 7.6 -3 11 C-3.66 10.34 -4.32 9.68 -5 9 C-4.5504955 7.68445015 -4.09010284 6.37261642 -3.625 5.0625 C-3.36976563 4.33160156 -3.11453125 3.60070312 -2.8515625 2.84765625 C-2 1 -2 1 0 0 Z " fill="#1B618C" transform="translate(228,230)"/>
<path d="M0 0 C3.5875213 1.33250791 6.8364623 2.830717 10 5 C10 5.66 10 6.32 10 7 C8.68 6.67 7.36 6.34 6 6 C6 5.34 6 4.68 6 4 C4.35 3.67 2.7 3.34 1 3 C0.67 2.01 0.34 1.02 0 0 Z " fill="#BA4B82" transform="translate(271,591)"/>
<path d="M0 0 C0.33 0 0.66 0 1 0 C1 1.65 1 3.3 1 5 C-5.75 4.25 -5.75 4.25 -8 2 C-6.865625 1.855625 -5.73125 1.71125 -4.5625 1.5625 C-1.19222799 1.38828522 -1.19222799 1.38828522 0 0 Z " fill="#38A2BF" transform="translate(616,399)"/>
<path d="M0 0 C2.64 0.33 5.28 0.66 8 1 C8 2.32 8 3.64 8 5 C4.62496331 3.8141763 2.35277269 2.72426311 0 0 Z " fill="#23658D" transform="translate(192,419)"/>
<path d="M0 0 C2.8125 -0.3125 2.8125 -0.3125 6 0 C7.875 2.5 7.875 2.5 9 5 C5.22454612 3.90931332 2.52956528 3.0916909 0 0 Z " fill="#1B608A" transform="translate(81,355)"/>
<path d="M0 0 C0.66 0.33 1.32 0.66 2 1 C-0.85276137 3.93200474 -3.65079784 6.64315404 -7 9 C-7.66 8.67 -8.32 8.34 -9 8 C-6.03 5.36 -3.06 2.72 0 0 Z " fill="#105684" transform="translate(48,133)"/>
<path d="M0 0 C0 3.96 0 7.92 0 12 C-0.33 12 -0.66 12 -1 12 C-1.66 8.37 -2.32 4.74 -3 1 C-1 0 -1 0 0 0 Z " fill="#BD5386" transform="translate(6,635)"/>
<path d="M0 0 C3.77545388 1.09068668 6.47043472 1.9083091 9 5 C6.1875 5.3125 6.1875 5.3125 3 5 C1.125 2.5 1.125 2.5 0 0 Z " fill="#BF4C84" transform="translate(182,540)"/>
<path d="M0 0 C3.14958831 3.42346555 3.56179109 6.44262737 4 11 C3.34 11 2.68 11 2 11 C0.19769832 7.17010894 -0.19622241 4.21878192 0 0 Z " fill="#195E87" transform="translate(8,267)"/>
<path d="M0 0 C-3.96 1.98 -3.96 1.98 -8 4 C-8 2.68 -8 1.36 -8 0 C-4.63458162 -1.08174162 -3.70152678 -0.92538169 0 0 Z " fill="#BC4D83" transform="translate(424,790)"/>
<path d="M0 0 C2.31 0.33 4.62 0.66 7 1 C7.33 2.32 7.66 3.64 8 5 C4.62496331 3.8141763 2.35277269 2.72426311 0 0 Z " fill="#C04B81" transform="translate(158,769)"/>
<path d="M0 0 C5.75 0.875 5.75 0.875 8 2 C8 2.99 8 3.98 8 5 C4.62496331 3.8141763 2.35277269 2.72426311 0 0 Z " fill="#C04B84" transform="translate(149,764)"/>
<path d="M0 0 C-6.75 4 -6.75 4 -9 4 C-9 3.01 -9 2.02 -9 1 C-3.375 -1.125 -3.375 -1.125 0 0 Z " fill="#C14B82" transform="translate(502,745)"/>
<path d="M0 0 C0.33 0.66 0.66 1.32 1 2 C-3.75 5 -3.75 5 -6 5 C-5.67 3.68 -5.34 2.36 -5 1 C-3.35 0.67 -1.7 0.34 0 0 Z " fill="#BF4B81" transform="translate(508,739)"/>
<path d="M0 0 C5.445 1.485 5.445 1.485 11 3 C11 3.33 11 3.66 11 4 C7.37 3.67 3.74 3.34 0 3 C0 2.01 0 1.02 0 0 Z " fill="#B65794" transform="translate(499,716)"/>
<path d="M0 0 C5.75 0.875 5.75 0.875 8 2 C7.67 2.99 7.34 3.98 7 5 C4.525 4.01 4.525 4.01 2 3 C2 2.34 2 1.68 2 1 C1.34 0.67 0.68 0.34 0 0 Z " fill="#6A3976" transform="translate(389,655)"/>
<path d="M0 0 C0.66 0.33 1.32 0.66 2 1 C1.1875 2.9375 1.1875 2.9375 0 5 C-0.99 5.33 -1.98 5.66 -3 6 C-3.66 6.66 -4.32 7.32 -5 8 C-4.6875 6.0625 -4.6875 6.0625 -4 4 C-3.01 3.67 -2.02 3.34 -1 3 C-0.67 2.01 -0.34 1.02 0 0 Z " fill="#1C618C" transform="translate(37,142)"/>
<path d="M0 0 C-3.96 1.98 -3.96 1.98 -8 4 C-7.67 2.68 -7.34 1.36 -7 0 C-3.98968256 -0.93423645 -3.13349732 -1.04449911 0 0 Z " fill="#BF4C82" transform="translate(372,820)"/>
<path d="M0 0 C0.66 0.66 1.32 1.32 2 2 C0.02 2.99 -1.96 3.98 -4 5 C-4.33 4.01 -4.66 3.02 -5 2 C-3.35 1.34 -1.7 0.68 0 0 Z " fill="#BD4F85" transform="translate(446,774)"/>
<path d="M0 0 C3.465 1.98 3.465 1.98 7 4 C7 4.33 7 4.66 7 5 C5.02 5 3.04 5 1 5 C0.67 3.35 0.34 1.7 0 0 Z " fill="#C35495" transform="translate(437,685)"/>
<path d="M0 0 C3.37462715 0.54723683 5.08235 1.0549 8 3 C8 3.66 8 4.32 8 5 C4.62496331 3.8141763 2.35277269 2.72426311 0 0 Z " fill="#924280" transform="translate(436,684)"/>
<path d="M0 0 C3.37503669 1.1858237 5.64722731 2.27573689 8 5 C7.01 5.495 7.01 5.495 6 6 C3.97945196 4.35830472 1.97956942 2.69088222 0 1 C0 0.67 0 0.34 0 0 Z " fill="#B7477E" transform="translate(174,535)"/>
</svg>
